{"title":"The Musketeers S03E05 - To Play the King x264 RB58.mp4","uid":15212114,"size":638038600,"categoryP":"video","categoryS":"tv_shows","magnet":"?xt=urn:btih:287fce068bc5616e775a370d4cd7252d3fadf1c9&amp;dn=The+Musketeers+S03E05+-+To+Play+the+King+x264+RB58.mp4&amp;tr=udp%3A%2F%2Ftracker.leechers-paradise.org%3A6969&amp;tr=udp%3A%2F%2Fzer0day.ch%3A1337&amp;tr=udp%3A%2F%2Fopen.demonii.com%3A1337&amp;tr=udp%3A%2F%2Ftracker.coppersurfer.tk%3A6969&amp;tr=udp%3A%2F%2Fexodus.desync.com%3A6969","seeders":0,"leechers":1,"uploader":"RedBaron58","files":1,"time":1467672457,"description":"The Musketeers S03E05 To Play the King x264 mp4\r\n \nhttp://www.imdb.com/title/tt2733252/\r\n\r\nTrailer:\r\n\r\nPlease be patient My intial upload speed is limited.\r\nThank you for your kind comments and feedback on my other torrents, your feedback is welcome.\r\n\r\n\r\nAbout the Episode:\r\nGrimaud and Feron stage an ambitious prison break at the Chatelet, freeing a prisoner \r\ncapable of using his unlikely talents to help them crack the royal vault. \r\nHowever, their actions also result in the emancipation of a much more dangerous inmate, \r\na madman with murderous intent. \r\nMeanwhile, ambitions collide during the Dauphin's birthday celebrations, D'Artagnan \r\npushes two estranged lovers together, resulting in catastrophe.\r\n \r\nTom Burke, Howard Charles and Santiago Cabrera starring as d'Artagnan, \r\nAthos, Porthos and Aramis.\r\n\r\n\r\nI hope you enjoy.\r\n\r\n\r\nTechnical:\r\n\r\nGeneral\r\nComplete name                            : I:The Musketeers S03E05 - To Play the King x264 RB58.mp4\r\nFormat                                   : MPEG-4\r\nFormat profile                           : Base Media\r\nCodec ID                                 : isom\r\nFile size                                : 608 MiB\r\nDuration                                 : 55mn 39s\r\nOverall bit rate                         : 1 529 Kbps\r\nWriting application                      : Lavf54.63.104\r\n\r\nVideo\r\nID                                       : 1\r\nFormat                                   : AVC\r\nFormat/Info                              : Advanced Video Codec\r\nFormat profile                           :   \r\nFormat settings, CABAC                   : Yes\r\nFormat settings, ReFrames                : 4 frames\r\nCodec ID                                 : avc1\r\nCodec ID/Info                            : Advanced Video Coding\r\nDuration                                 : 55mn 39s\r\nBit rate                                 : 1 400 Kbps\r\nWidth                                    : 832 pixels\r\nHeight                                   : 468 pixels\r\nDisplay aspect ratio                     : 16:9\r\nFrame rate mode                          : Constant\r\nFrame rate                               : 25.000 fps\r\nColor space                              : YUV\r\nChroma subsampling                       : 4:2:0\r\nBit depth                                : 8 bits\r\nScan type                                : Progressive\r\nBits/(Pixel*Frame)                       : 0.144\r\nStream size                              : 557 MiB (92%)\r\nWriting library                          : x264 core 123 r2189 35cf912\r\nEncoding settings                        : cabac=1 / ref=3 / deblock=1:0:0\r\n\r\nAudio\r\nID                                       : 2\r\nFormat                                   : AAC\r\nFormat/Info                              : Advanced Audio Codec\r\nFormat profile                           : LC\r\nCodec ID                                 : 40\r\nDuration                                 : 55mn 39s\r\nBit rate mode                            : Constant\r\nBit rate                                 : 120 Kbps\r\nChannel(s)                               : 2 channels\r\nChannel positions                        : Front: L R\r\nSampling rate                            : 48.0 KHz\r\nCompression mode                         : Lossy\r\nStream size                              : 47.9 MiB (8%)","torrent":{"xt":"urn:btih:287fce068bc5616e775a370d4cd7252d3fadf1c9","amp;dn":"The+Musketeers+S03E05+-+To+Play+the+King+x264+RB58.mp4","amp;tr":["udp%3A%2F%2Ftracker.leechers-paradise.org%3A6969","udp%3A%2F%2Fzer0day.ch%3A1337","udp%3A%2F%2Fopen.demonii.com%3A1337","udp%3A%2F%2Ftracker.coppersurfer.tk%3A6969","udp%3A%2F%2Fexodus.desync.com%3A6969"],"infoHash":"287fce068bc5616e775a370d4cd7252d3fadf1c9","infoHashBuffer":{"type":"Buffer","data":[40,127,206,6,139,197,97,110,119,90,55,13,76,215,37,45,63,173,241,201]},"announce":[],"urlList":[]}}